# xmcd CD database file
#
# Track frame offsets:
#	182
#	18742
#	30787
#	42440
#	56215
#	66447
#	78532
#	96767
#	107912
#	118030
#	130300
#	142650
#	154995
#	164212
#	178960
#	196020
#	205927
#	219332
#	230055
#	244045
#
# Disc length: 3402 seconds
#
# Revision: 0
# Processed by: cddbd v1.5.2PL0 Copyright (c) Steve Scherf et al.
# Submitted via: CDex 1.51
#
DISCID=270d4814
DTITLE=Cole Porter - Begin the Beguine
DYEAR=1995
DGENRE=Jazz
TTITLE0=Begin the beguine
TTITLE1=Night and day
TTITLE2=I love Paris
TTITLE3=True love
TTITLE4=Another opening another show
TTITLE5=C'est magnifique
TTITLE6=From this moment
TTITLE7=It's alright with me
TTITLE8=It's de-lovely
TTITLE9=My heart belongs to dady
TTITLE10=So in love
TTITLE11=What is this thing called love
TTITLE12=Wunderbar
TTITLE13=Allez-vous en
TTITLE14=Why can't we behave
TTITLE15=Can can
TTITLE16=Where is the life that late i led
TTITLE17=If i loved you truely
TTITLE18=Where thine that special face
TTITLE19=Well, did you evah
EXTD=YEAR: 1995
EXTT0=
EXTT1=
EXTT2=
EXTT3=
EXTT4=
EXTT5=
EXTT6=
EXTT7=
EXTT8=
EXTT9=
EXTT10=
EXTT11=
EXTT12=
EXTT13=
EXTT14=
EXTT15=
EXTT16=
EXTT17=
EXTT18=
EXTT19=
PLAYORDER=
